<?xml version="1.0" encoding="UTF-8"?>
<!DOCTYPE svg PUBLIC "-//W3C//DTD SVG 1.1//EN" "http://www.w3.org/Graphics/SVG/1.1/DTD/svg11.dtd">
<svg xmlns="http://www.w3.org/2000/svg" version="1.1" width="334px" height="119px" style="shape-rendering:geometricPrecision; text-rendering:geometricPrecision; image-rendering:optimizeQuality; fill-rule:evenodd; clip-rule:evenodd" xmlns:xlink="http://www.w3.org/1999/xlink">
<g><path style="opacity:0.93" fill="#fefefe" d="M 22.5,-0.5 C 27.1667,-0.5 31.8333,-0.5 36.5,-0.5C 40.0705,0.618594 43.4039,2.28526 46.5,4.5C 43.7092,7.37902 41.3759,10.7124 39.5,14.5C 27.4425,9.62123 18.6092,12.9546 13,24.5C 11.0206,37.8503 16.6872,45.517 30,47.5C 36.6257,46.9395 41.7923,43.9395 45.5,38.5C 50.5322,31.7719 54.5322,24.4386 57.5,16.5C 62.3939,8.27671 69.3939,2.61005 78.5,-0.5C 94.1667,-0.5 109.833,-0.5 125.5,-0.5C 131.328,3.51791 132.828,8.85124 130,15.5C 111.414,47.0031 93.0808,78.6697 75,110.5C 72.06,114.037 68.56,116.703 64.5,118.5C 60.1667,118.5 55.8333,118.5 51.5,118.5C 45.7246,116.014 41.2246,112.014 38,106.5C 24.6036,83.6968 11.7702,60.6968 -0.5,37.5C -0.5,32.5 -0.5,27.5 -0.5,22.5C 3.5,11.1667 11.1667,3.5 22.5,-0.5 Z M 39.5,14.5 C 41.5293,16.8585 43.5293,19.1918 45.5,21.5C 45.9887,22.9952 46.6554,24.3285 47.5,25.5C 47.5,27.5 47.5,29.5 47.5,31.5C 47.1218,33.921 46.4552,36.2543 45.5,38.5C 41.7923,43.9395 36.6257,46.9395 30,47.5C 16.6872,45.517 11.0206,37.8503 13,24.5C 18.6092,12.9546 27.4425,9.62123 39.5,14.5 Z M 80.5,12.5 C 92.1857,12.1678 103.852,12.5011 115.5,13.5C 98.1301,44.4119 80.1301,74.9119 61.5,105C 56.3747,106.569 52.5414,105.069 50,100.5C 42.5,87.5 35,74.5 27.5,61.5C 39.5072,61.0816 49.0072,56.0816 56,46.5C 61.3333,37.1667 66.6667,27.8333 72,18.5C 74.6371,16.109 77.4704,14.109 80.5,12.5 Z"/></g>
<g><path style="opacity:0.984" fill="#f8f8f8" d="M 46.5,4.5 C 49.4474,5.7805 51.7807,7.7805 53.5,10.5C 49.4356,12.9327 46.7689,16.5994 45.5,21.5C 43.5293,19.1918 41.5293,16.8585 39.5,14.5C 41.3759,10.7124 43.7092,7.37902 46.5,4.5 Z"/></g>
<g><path style="opacity:1" fill="#c4c3c3" d="M 56.5,15.5 C 57.1667,15.5 57.5,15.8333 57.5,16.5C 54.5322,24.4386 50.5322,31.7719 45.5,38.5C 46.4552,36.2543 47.1218,33.921 47.5,31.5C 49.3752,26.9001 51.3752,22.2334 53.5,17.5C 54.2652,16.3881 55.2652,15.7214 56.5,15.5 Z"/></g>
<g><path style="opacity:1" fill="#e8e8e8" d="M 53.5,10.5 C 54.4013,11.2905 55.0679,12.2905 55.5,13.5C 51.3605,16.4255 48.6938,20.4255 47.5,25.5C 46.6554,24.3285 45.9887,22.9952 45.5,21.5C 46.7689,16.5994 49.4356,12.9327 53.5,10.5 Z"/></g>
<g><path style="opacity:1" fill="#cfcfcf" d="M 55.5,13.5 C 56.3382,13.8417 56.6716,14.5084 56.5,15.5C 55.2652,15.7214 54.2652,16.3881 53.5,17.5C 51.3752,22.2334 49.3752,26.9001 47.5,31.5C 47.5,29.5 47.5,27.5 47.5,25.5C 48.6938,20.4255 51.3605,16.4255 55.5,13.5 Z"/></g>
<g><path style="opacity:0.951" fill="#fefffe" d="M 262.5,48.5 C 271.807,47.3987 278.307,51.0653 282,59.5C 282.5,71.4954 282.667,83.4954 282.5,95.5C 277.833,95.5 273.167,95.5 268.5,95.5C 268.666,86.4938 268.5,77.4938 268,68.5C 266.047,62.4676 262.213,60.9676 256.5,64C 255.874,64.7504 255.374,65.5838 255,66.5C 254.5,76.1609 254.334,85.8276 254.5,95.5C 249.5,95.5 244.5,95.5 239.5,95.5C 239.5,80.1667 239.5,64.8333 239.5,49.5C 244.167,49.5 248.833,49.5 253.5,49.5C 253.343,50.8734 253.51,52.2068 254,53.5C 256.682,51.415 259.516,49.7483 262.5,48.5 Z"/></g>
<g><path style="opacity:0.937" fill="#fefffe" d="M 333.5,65.5 C 333.5,69.1667 333.5,72.8333 333.5,76.5C 322.813,76.168 312.146,76.5013 301.5,77.5C 305.202,84.3499 310.536,86.0166 317.5,82.5C 318.439,80.9466 319.606,79.6133 321,78.5C 324.745,79.8944 328.578,80.8944 332.5,81.5C 328.789,93.7059 320.456,98.8725 307.5,97C 291.016,92.8912 284.516,82.3912 288,65.5C 295.497,48.9033 307.664,44.4033 324.5,52C 329.162,55.5168 332.162,60.0168 333.5,65.5 Z M 307.5,60.5 C 313.412,59.6087 317.079,61.942 318.5,67.5C 313.167,67.5 307.833,67.5 302.5,67.5C 303.002,64.3315 304.669,61.9981 307.5,60.5 Z"/></g>
<g><path style="opacity:0.922" fill="#fefffe" d="M 131.5,49.5 C 136.875,49.1718 142.208,49.5052 147.5,50.5C 150.716,58.9894 154.216,67.3227 158,75.5C 160.944,66.835 163.777,58.1683 166.5,49.5C 171.833,49.5 177.167,49.5 182.5,49.5C 177.131,64.5783 171.465,79.5783 165.5,94.5C 160.167,95.8333 154.833,95.8333 149.5,94.5C 143.204,79.5808 137.204,64.5808 131.5,49.5 Z"/></g>
<g><path style="opacity:0.917" fill="#fefffe" d="M 184.5,49.5 C 189.844,49.334 195.177,49.5006 200.5,50C 204.128,57.4245 207.628,64.9245 211,72.5C 214.72,65.06 217.887,57.3933 220.5,49.5C 225.833,49.5 231.167,49.5 236.5,49.5C 227.902,70.7017 218.735,91.7017 209,112.5C 203.928,113.471 198.762,113.805 193.5,113.5C 196.093,105.392 199.093,97.3923 202.5,89.5C 196.485,76.1393 190.485,62.806 184.5,49.5 Z"/></g>
</svg>
